<svg width="135" height="380" viewBox="0 0 135 380" fill="none" xmlns="http://www.w3.org/2000/svg" xmlns:xlink="http://www.w3.org/1999/xlink">
<defs>
    <linearGradient
       id="linearGradient915">
      <stop
         style="stop-color:#e0e0e0;stop-opacity:1;"
         offset="0"
         id="stop911" />
      <stop
         style="stop-color:#d0d0d0;stop-opacity:1;"
         offset="1"
         id="stop913" />
    </linearGradient>
    <linearGradient
       xlink:href="#linearGradient915"
       id="linearGradient919"
       x1="0"
       y1="190"
       x2="135"
       y2="190"
       gradientUnits="userSpaceOnUse" />
</defs>
<path d="M0 0H135V380H0V0Z" fill="url(#linearGradient919)"/>
<path d="M46.5703 15.3359V12.2031H43.9922V10.9062H48.1328V15.9141C47.5234 16.3464 46.8516 16.6745 46.1172 16.8984C45.3828 17.1172 44.599 17.2266 43.7656 17.2266C41.9427 17.2266 40.5156 16.6953 39.4844 15.6328C38.4583 14.5651 37.9453 13.0807 37.9453 11.1797C37.9453 9.27344 38.4583 7.78906 39.4844 6.72656C40.5156 5.65885 41.9427 5.125 43.7656 5.125C44.526 5.125 45.2474 5.21875 45.9297 5.40625C46.6172 5.59375 47.25 5.86979 47.8281 6.23438V7.91406C47.2448 7.41927 46.625 7.04688 45.9688 6.79688C45.3125 6.54688 44.6224 6.42188 43.8984 6.42188C42.4714 6.42188 41.3984 6.82031 40.6797 7.61719C39.9661 8.41406 39.6094 9.60156 39.6094 11.1797C39.6094 12.7526 39.9661 13.9375 40.6797 14.7344C41.3984 15.5313 42.4714 15.9297 43.8984 15.9297C44.4557 15.9297 44.9531 15.8828 45.3906 15.7891C45.8281 15.6901 46.2214 15.5391 46.5703 15.3359Z" fill="black"/>
<path d="M51.0234 5.33594H53.1484L58.3203 15.0938V5.33594H59.8516V17H57.7266L52.5547 7.24219V17H51.0234V5.33594Z" fill="black"/>
<path d="M67.7266 6.40625C66.5807 6.40625 65.6693 6.83333 64.9922 7.6875C64.3203 8.54167 63.9844 9.70573 63.9844 11.1797C63.9844 12.6484 64.3203 13.8099 64.9922 14.6641C65.6693 15.5182 66.5807 15.9453 67.7266 15.9453C68.8724 15.9453 69.7786 15.5182 70.4453 14.6641C71.1172 13.8099 71.4531 12.6484 71.4531 11.1797C71.4531 9.70573 71.1172 8.54167 70.4453 7.6875C69.7786 6.83333 68.8724 6.40625 67.7266 6.40625ZM67.7266 5.125C69.362 5.125 70.6693 5.67448 71.6484 6.77344C72.6276 7.86719 73.1172 9.33594 73.1172 11.1797C73.1172 13.0182 72.6276 14.487 71.6484 15.5859C70.6693 16.6797 69.362 17.2266 67.7266 17.2266C66.0859 17.2266 64.7734 16.6797 63.7891 15.5859C62.8099 14.4922 62.3203 13.0234 62.3203 11.1797C62.3203 9.33594 62.8099 7.86719 63.7891 6.77344C64.7734 5.67448 66.0859 5.125 67.7266 5.125Z" fill="black"/>
<path d="M75.5859 5.33594H77.9375L80.9141 13.2734L83.9062 5.33594H86.2578V17H84.7188V6.75781L81.7109 14.7578H80.125L77.1172 6.75781V17H75.5859V5.33594Z" fill="black"/>
<path d="M89.3984 5.33594H96.7734V6.66406H90.9766V10.1172H96.5312V11.4453H90.9766V15.6719H96.9141V17H89.3984V5.33594Z" fill="black"/>
<path d="M60 74H130V158H60V74Z" fill="#004200"/>
<path d="M17.3477 64.2656C17.5169 64.3229 17.681 64.4453 17.8398 64.6328C18.0013 64.8203 18.1628 65.0781 18.3242 65.4062L19.125 67H18.2773L17.5312 65.5039C17.3385 65.1133 17.151 64.8542 16.9688 64.7266C16.7891 64.599 16.543 64.5352 16.2305 64.5352H15.3711V67H14.582V61.168H16.3633C17.0299 61.168 17.5273 61.3073 17.8555 61.5859C18.1836 61.8646 18.3477 62.2852 18.3477 62.8477C18.3477 63.2148 18.2617 63.5195 18.0898 63.7617C17.9206 64.0039 17.6732 64.1719 17.3477 64.2656ZM15.3711 61.8164V63.8867H16.3633C16.7435 63.8867 17.0299 63.7995 17.2227 63.625C17.418 63.4479 17.5156 63.1888 17.5156 62.8477C17.5156 62.5065 17.418 62.25 17.2227 62.0781C17.0299 61.9036 16.7435 61.8164 16.3633 61.8164H15.3711Z" fill="black"/>
<path d="M20.0547 61.168H20.8477V64.7109C20.8477 65.3359 20.9609 65.7865 21.1875 66.0625C21.4141 66.3359 21.7813 66.4727 22.2891 66.4727C22.7943 66.4727 23.1602 66.3359 23.3867 66.0625C23.6133 65.7865 23.7266 65.3359 23.7266 64.7109V61.168H24.5195V64.8086C24.5195 65.569 24.3307 66.1432 23.9531 66.5312C23.5781 66.9193 23.0234 67.1133 22.2891 67.1133C21.5521 67.1133 20.9948 66.9193 20.6172 66.5312C20.2422 66.1432 20.0547 65.569 20.0547 64.8086V61.168Z" fill="black"/>
<path d="M26.0039 61.168H27.0664L29.6523 66.0469V61.168H30.418V67H29.3555L26.7695 62.1211V67H26.0039V61.168Z" fill="black"/>
<path d="M80.5156 61.3594V62.1289C80.2161 61.9857 79.9336 61.8789 79.668 61.8086C79.4023 61.7383 79.1458 61.7031 78.8984 61.7031C78.4688 61.7031 78.1367 61.7865 77.9023 61.9531C77.6706 62.1198 77.5547 62.3568 77.5547 62.6641C77.5547 62.9219 77.6315 63.1172 77.7852 63.25C77.9414 63.3802 78.2357 63.4857 78.668 63.5664L79.1445 63.6641C79.7331 63.776 80.1667 63.974 80.4453 64.2578C80.7266 64.5391 80.8672 64.9167 80.8672 65.3906C80.8672 65.9557 80.6771 66.3841 80.2969 66.6758C79.9193 66.9674 79.3646 67.1133 78.6328 67.1133C78.3568 67.1133 78.0625 67.082 77.75 67.0195C77.4401 66.957 77.1185 66.8646 76.7852 66.7422V65.9297C77.1055 66.1094 77.4193 66.2448 77.7266 66.3359C78.0339 66.4271 78.3359 66.4727 78.6328 66.4727C79.0833 66.4727 79.431 66.3841 79.6758 66.207C79.9206 66.0299 80.043 65.7773 80.043 65.4492C80.043 65.1628 79.9544 64.9388 79.7773 64.7773C79.6029 64.6159 79.3151 64.4948 78.9141 64.4141L78.4336 64.3203C77.8451 64.2031 77.4193 64.0195 77.1562 63.7695C76.8932 63.5195 76.7617 63.1719 76.7617 62.7266C76.7617 62.2109 76.9427 61.8047 77.3047 61.5078C77.6693 61.2109 78.1706 61.0625 78.8086 61.0625C79.082 61.0625 79.3607 61.0872 79.6445 61.1367C79.9284 61.1862 80.2187 61.2604 80.5156 61.3594V61.3594Z" fill="black"/>
<path d="M81.5781 61.168H82.375L83.6016 66.0977L84.8242 61.168H85.7109L86.9375 66.0977L88.1602 61.168H88.9609L87.4961 67H86.5039L85.2734 61.9375L84.0312 67H83.0391L81.5781 61.168Z" fill="black"/>
<path d="M90.0039 61.168H90.793V67H90.0039V61.168Z" fill="black"/>
<path d="M92.3633 61.168H93.4258L96.0117 66.0469V61.168H96.7773V67H95.7148L93.1289 62.1211V67H92.3633V61.168Z" fill="black"/>
<path d="M102.324 66.168V64.6016H101.035V63.9531H103.105V66.457C102.801 66.6732 102.465 66.8372 102.098 66.9492C101.73 67.0586 101.339 67.1133 100.922 67.1133C100.01 67.1133 99.2969 66.8477 98.7812 66.3164C98.2682 65.7826 98.0117 65.0404 98.0117 64.0898C98.0117 63.1367 98.2682 62.3945 98.7812 61.8633C99.2969 61.3294 100.01 61.0625 100.922 61.0625C101.302 61.0625 101.663 61.1094 102.004 61.2031C102.348 61.2969 102.664 61.4349 102.953 61.6172V62.457C102.661 62.2096 102.352 62.0234 102.023 61.8984C101.695 61.7734 101.35 61.7109 100.988 61.7109C100.275 61.7109 99.7383 61.9102 99.3789 62.3086C99.0221 62.707 98.8438 63.3008 98.8438 64.0898C98.8438 64.8763 99.0221 65.4688 99.3789 65.8672C99.7383 66.2656 100.275 66.4648 100.988 66.4648C101.267 66.4648 101.516 66.4414 101.734 66.3945C101.953 66.3451 102.15 66.2695 102.324 66.168V66.168Z" fill="black"/>
<path d="M71.9623 46.6488H72.6038L70.6415 52.9997H70L71.9623 46.6488Z" fill="black"/>
<path d="M75.0679 49.6073C74.7057 49.6073 74.4201 49.7041 74.2113 49.8978C74.005 50.0915 73.9019 50.3582 73.9019 50.6978C73.9019 51.0374 74.005 51.3041 74.2113 51.4978C74.4201 51.6915 74.7057 51.7884 75.0679 51.7884C75.4302 51.7884 75.7157 51.6915 75.9245 51.4978C76.1333 51.3016 76.2378 51.0349 76.2378 50.6978C76.2378 50.3582 76.1333 50.0915 75.9245 49.8978C75.7183 49.7041 75.4327 49.6073 75.0679 49.6073ZM74.3057 49.2827C73.9786 49.2022 73.7233 49.05 73.5396 48.8261C73.3585 48.6022 73.2679 48.3293 73.2679 48.0073C73.2679 47.5569 73.4277 47.201 73.7472 46.9393C74.0692 46.6777 74.5094 46.5469 75.0679 46.5469C75.6289 46.5469 76.0692 46.6777 76.3887 46.9393C76.7082 47.201 76.8679 47.5569 76.8679 48.0073C76.8679 48.3293 76.7761 48.6022 76.5925 48.8261C76.4113 49.05 76.1585 49.2022 75.834 49.2827C76.2013 49.3683 76.4868 49.5356 76.6906 49.7846C76.8969 50.0337 77 50.3381 77 50.6978C77 51.2437 76.8327 51.6626 76.4981 51.9544C76.1661 52.2462 75.6893 52.3922 75.0679 52.3922C74.4466 52.3922 73.9686 52.2462 73.634 51.9544C73.3019 51.6626 73.1359 51.2437 73.1359 50.6978C73.1359 50.3381 73.239 50.0337 73.4453 49.7846C73.6516 49.5356 73.9384 49.3683 74.3057 49.2827V49.2827ZM74.0264 48.079C74.0264 48.3708 74.117 48.5984 74.2981 48.762C74.4818 48.9255 74.7384 49.0073 75.0679 49.0073C75.395 49.0073 75.6503 48.9255 75.834 48.762C76.0201 48.5984 76.1132 48.3708 76.1132 48.079C76.1132 47.7871 76.0201 47.5595 75.834 47.3959C75.6503 47.2324 75.395 47.1506 75.0679 47.1506C74.7384 47.1506 74.4818 47.2324 74.2981 47.3959C74.117 47.5595 74.0264 47.7871 74.0264 48.079Z" fill="black"/>
<path d="M104.961 46.1018H105.603L103.641 52.45H103L104.961 46.1018Z" fill="black"/>
<path d="M106.568 51.0921H107.813V46.7959L106.459 47.0675V46.3734L107.805 46.1018H108.567V51.0921H109.812V51.7333H106.568V51.0921Z" fill="black"/>
<path d="M113.079 48.6139C112.737 48.6139 112.465 48.7309 112.264 48.9647C112.065 49.1986 111.966 49.5192 111.966 49.9266C111.966 50.3314 112.065 50.652 112.264 50.8884C112.465 51.1223 112.737 51.2392 113.079 51.2392C113.421 51.2392 113.691 51.1223 113.89 50.8884C114.091 50.652 114.191 50.3314 114.191 49.9266C114.191 49.5192 114.091 49.1986 113.89 48.9647C113.691 48.7309 113.421 48.6139 113.079 48.6139ZM114.591 46.2263V46.9203C114.4 46.8298 114.206 46.7607 114.01 46.7129C113.817 46.6651 113.624 46.6412 113.433 46.6412C112.93 46.6412 112.545 46.811 112.279 47.1504C112.015 47.4899 111.864 48.0029 111.826 48.6894C111.975 48.4706 112.161 48.3034 112.385 48.1877C112.608 48.0695 112.855 48.0104 113.124 48.0104C113.69 48.0104 114.136 48.1827 114.463 48.5272C114.792 48.8692 114.957 49.3356 114.957 49.9266C114.957 50.5049 114.786 50.9689 114.444 51.3184C114.102 51.668 113.647 51.8427 113.079 51.8427C112.427 51.8427 111.929 51.5938 111.585 51.0959C111.24 50.5955 111.068 49.8713 111.068 48.9232C111.068 48.0331 111.279 47.3239 111.702 46.7959C112.124 46.2653 112.691 46 113.403 46C113.594 46 113.786 46.0189 113.98 46.0566C114.176 46.0943 114.38 46.1509 114.591 46.2263V46.2263Z" fill="black"/>
<path d="M15.4648 109.215V111.352H16.7305C17.1549 111.352 17.4687 111.264 17.6719 111.09C17.8776 110.913 17.9805 110.643 17.9805 110.281C17.9805 109.917 17.8776 109.648 17.6719 109.477C17.4687 109.302 17.1549 109.215 16.7305 109.215H15.4648ZM15.4648 106.816V108.574H16.6328C17.0182 108.574 17.3047 108.503 17.4922 108.359C17.6823 108.214 17.7773 107.992 17.7773 107.695C17.7773 107.401 17.6823 107.181 17.4922 107.035C17.3047 106.889 17.0182 106.816 16.6328 106.816H15.4648ZM14.6758 106.168H16.6914C17.293 106.168 17.7565 106.293 18.082 106.543C18.4076 106.793 18.5703 107.148 18.5703 107.609C18.5703 107.966 18.487 108.25 18.3203 108.461C18.1536 108.672 17.9089 108.803 17.5859 108.855C17.974 108.939 18.2747 109.113 18.4883 109.379C18.7044 109.642 18.8125 109.971 18.8125 110.367C18.8125 110.888 18.6354 111.29 18.2812 111.574C17.9271 111.858 17.4232 112 16.7695 112H14.6758V106.168Z" fill="black"/>
<path d="M20.9492 106.816V109.008H21.9414C22.3086 109.008 22.5924 108.913 22.793 108.723C22.9935 108.533 23.0938 108.262 23.0938 107.91C23.0938 107.561 22.9935 107.292 22.793 107.102C22.5924 106.911 22.3086 106.816 21.9414 106.816H20.9492ZM20.1602 106.168H21.9414C22.5951 106.168 23.0885 106.316 23.4219 106.613C23.7578 106.908 23.9258 107.34 23.9258 107.91C23.9258 108.486 23.7578 108.921 23.4219 109.215C23.0885 109.509 22.5951 109.656 21.9414 109.656H20.9492V112H20.1602V106.168Z" fill="black"/>
<path d="M24.9883 106.168H26.1641L27.6523 110.137L29.1484 106.168H30.3242V112H29.5547V106.879L28.0508 110.879H27.2578L25.7539 106.879V112H24.9883V106.168Z" fill="black"/>
<path d="M9.10156 151.168H9.89844L11.125 156.098L12.3477 151.168H13.2344L14.4609 156.098L15.6836 151.168H16.4844L15.0195 157H14.0273L12.7969 151.938L11.5547 157H10.5625L9.10156 151.168Z" fill="black"/>
<path d="M17.5273 151.168H18.3164V157H17.5273V151.168Z" fill="black"/>
<path d="M20.6758 151.816V156.352H21.6289C22.4336 156.352 23.0221 156.169 23.3945 155.805C23.7695 155.44 23.957 154.865 23.957 154.078C23.957 153.297 23.7695 152.725 23.3945 152.363C23.0221 151.999 22.4336 151.816 21.6289 151.816H20.6758ZM19.8867 151.168H21.5078C22.638 151.168 23.4674 151.404 23.9961 151.875C24.5247 152.344 24.7891 153.078 24.7891 154.078C24.7891 155.083 24.5234 155.822 23.9922 156.293C23.4609 156.764 22.6328 157 21.5078 157H19.8867V151.168Z" fill="black"/>
<path d="M25.2344 151.168H30.168V151.832H28.0977V157H27.3047V151.832H25.2344V151.168Z" fill="black"/>
<path d="M30.9336 151.168H31.7227V153.559H34.5898V151.168H35.3789V157H34.5898V154.223H31.7227V157H30.9336V151.168Z" fill="black"/>
<path d="M13.2227 195.266C13.3919 195.323 13.556 195.445 13.7148 195.633C13.8763 195.82 14.0378 196.078 14.1992 196.406L15 198H14.1523L13.4062 196.504C13.2135 196.113 13.026 195.854 12.8438 195.727C12.6641 195.599 12.418 195.535 12.1055 195.535H11.2461V198H10.457V192.168H12.2383C12.9049 192.168 13.4023 192.307 13.7305 192.586C14.0586 192.865 14.2227 193.285 14.2227 193.848C14.2227 194.215 14.1367 194.52 13.9648 194.762C13.7956 195.004 13.5482 195.172 13.2227 195.266V195.266ZM11.2461 192.816V194.887H12.2383C12.6185 194.887 12.9049 194.799 13.0977 194.625C13.293 194.448 13.3906 194.189 13.3906 193.848C13.3906 193.507 13.293 193.25 13.0977 193.078C12.9049 192.904 12.6185 192.816 12.2383 192.816H11.2461Z" fill="black"/>
<path d="M16.0195 192.168H19.707V192.832H16.8086V194.559H19.5859V195.223H16.8086V197.336H19.7773V198H16.0195V192.168Z" fill="black"/>
<path d="M24.5781 192.359V193.129C24.2786 192.986 23.9961 192.879 23.7305 192.809C23.4648 192.738 23.2083 192.703 22.9609 192.703C22.5313 192.703 22.1992 192.786 21.9648 192.953C21.7331 193.12 21.6172 193.357 21.6172 193.664C21.6172 193.922 21.694 194.117 21.8477 194.25C22.0039 194.38 22.2982 194.486 22.7305 194.566L23.207 194.664C23.7956 194.776 24.2292 194.974 24.5078 195.258C24.7891 195.539 24.9297 195.917 24.9297 196.391C24.9297 196.956 24.7396 197.384 24.3594 197.676C23.9818 197.967 23.4271 198.113 22.6953 198.113C22.4193 198.113 22.125 198.082 21.8125 198.02C21.5026 197.957 21.181 197.865 20.8477 197.742V196.93C21.168 197.109 21.4818 197.245 21.7891 197.336C22.0964 197.427 22.3984 197.473 22.6953 197.473C23.1458 197.473 23.4935 197.384 23.7383 197.207C23.9831 197.03 24.1055 196.777 24.1055 196.449C24.1055 196.163 24.0169 195.939 23.8398 195.777C23.6654 195.616 23.3776 195.495 22.9766 195.414L22.4961 195.32C21.9076 195.203 21.4818 195.02 21.2188 194.77C20.9557 194.52 20.8242 194.172 20.8242 193.727C20.8242 193.211 21.0052 192.805 21.3672 192.508C21.7318 192.211 22.2331 192.063 22.8711 192.063C23.1445 192.063 23.4232 192.087 23.707 192.137C23.9909 192.186 24.2812 192.261 24.5781 192.359V192.359Z" fill="black"/>
<path d="M26.1602 192.168H29.8477V192.832H26.9492V194.559H29.7266V195.223H26.9492V197.336H29.918V198H26.1602V192.168Z" fill="black"/>
<path d="M30.4141 192.168H35.3477V192.832H33.2773V198H32.4844V192.832H30.4141V192.168Z" fill="black"/>
<path d="M65.6328 192.168H66.2969L64.2656 198.742H63.6016L65.6328 192.168Z" fill="black"/>
<path d="M67.2969 197.336H68.5859V192.887L67.1836 193.168V192.449L68.5781 192.168H69.3672V197.336H70.6562V198H67.2969V197.336Z" fill="black"/>
<path d="M110.633 192.168H111.297L109.266 198.742H108.602L110.633 192.168Z" fill="black"/>
<path d="M112.84 197.336H115.594V198H111.891V197.336C112.19 197.026 112.598 196.611 113.113 196.09C113.632 195.566 113.957 195.229 114.09 195.078C114.342 194.794 114.518 194.555 114.617 194.359C114.719 194.161 114.77 193.967 114.77 193.777C114.77 193.467 114.66 193.215 114.441 193.02C114.225 192.824 113.943 192.727 113.594 192.727C113.346 192.727 113.085 192.77 112.809 192.855C112.535 192.941 112.242 193.072 111.93 193.246V192.449C112.247 192.322 112.544 192.225 112.82 192.16C113.096 192.095 113.349 192.062 113.578 192.062C114.182 192.062 114.664 192.213 115.023 192.516C115.383 192.818 115.562 193.221 115.562 193.727C115.562 193.966 115.517 194.194 115.426 194.41C115.337 194.624 115.174 194.876 114.937 195.168C114.872 195.243 114.665 195.462 114.316 195.824C113.967 196.184 113.475 196.687 112.84 197.336V197.336Z" fill="black"/>
<path d="M20.6328 237.168H21.2969L19.2656 243.742H18.6016L20.6328 237.168Z" fill="black"/>
<path d="M24.3281 237.855L22.3359 240.969H24.3281V237.855ZM24.1211 237.168H25.1133V240.969H25.9453V241.625H25.1133V243H24.3281V241.625H21.6953V240.863L24.1211 237.168Z" fill="black"/>
<path d="M65.6328 237.168H66.2969L64.2656 243.742H63.6016L65.6328 237.168Z" fill="black"/>
<path d="M68.8477 240.23C68.4727 240.23 68.1771 240.331 67.9609 240.531C67.7474 240.732 67.6406 241.008 67.6406 241.359C67.6406 241.711 67.7474 241.987 67.9609 242.188C68.1771 242.388 68.4727 242.488 68.8477 242.488C69.2227 242.488 69.5182 242.388 69.7344 242.188C69.9505 241.984 70.0586 241.708 70.0586 241.359C70.0586 241.008 69.9505 240.732 69.7344 240.531C69.5208 240.331 69.2253 240.23 68.8477 240.23ZM68.0586 239.895C67.7201 239.811 67.4557 239.654 67.2656 239.422C67.0781 239.19 66.9844 238.908 66.9844 238.574C66.9844 238.108 67.1497 237.74 67.4805 237.469C67.8138 237.198 68.2695 237.062 68.8477 237.062C69.4284 237.062 69.8841 237.198 70.2148 237.469C70.5456 237.74 70.7109 238.108 70.7109 238.574C70.7109 238.908 70.6159 239.19 70.4258 239.422C70.2383 239.654 69.9766 239.811 69.6406 239.895C70.0208 239.983 70.3164 240.156 70.5273 240.414C70.7409 240.672 70.8477 240.987 70.8477 241.359C70.8477 241.924 70.6745 242.358 70.3281 242.66C69.9844 242.962 69.4909 243.113 68.8477 243.113C68.2044 243.113 67.7096 242.962 67.3633 242.66C67.0195 242.358 66.8477 241.924 66.8477 241.359C66.8477 240.987 66.9544 240.672 67.168 240.414C67.3815 240.156 67.6784 239.983 68.0586 239.895ZM67.7695 238.648C67.7695 238.951 67.8633 239.186 68.0508 239.355C68.2409 239.525 68.5065 239.609 68.8477 239.609C69.1862 239.609 69.4505 239.525 69.6406 239.355C69.8333 239.186 69.9297 238.951 69.9297 238.648C69.9297 238.346 69.8333 238.111 69.6406 237.941C69.4505 237.772 69.1862 237.688 68.8477 237.688C68.5065 237.688 68.2409 237.772 68.0508 237.941C67.8633 238.111 67.7695 238.346 67.7695 238.648Z" fill="black"/>
<path d="M108.086 237.168H108.75L106.719 243.742H106.055L108.086 237.168Z" fill="black"/>
<path d="M109.75 242.336H111.039V237.887L109.637 238.168V237.449L111.031 237.168H111.82V242.336H113.109V243H109.75V242.336Z" fill="black"/>
<path d="M116.492 239.77C116.138 239.77 115.857 239.891 115.648 240.133C115.443 240.375 115.34 240.707 115.34 241.129C115.34 241.548 115.443 241.88 115.648 242.125C115.857 242.367 116.138 242.488 116.492 242.488C116.846 242.488 117.126 242.367 117.332 242.125C117.54 241.88 117.645 241.548 117.645 241.129C117.645 240.707 117.54 240.375 117.332 240.133C117.126 239.891 116.846 239.77 116.492 239.77ZM118.059 237.297V238.016C117.861 237.922 117.66 237.85 117.457 237.801C117.257 237.751 117.057 237.727 116.859 237.727C116.339 237.727 115.94 237.902 115.664 238.254C115.391 238.605 115.234 239.137 115.195 239.848C115.349 239.621 115.542 239.448 115.773 239.328C116.005 239.206 116.26 239.145 116.539 239.145C117.125 239.145 117.587 239.323 117.926 239.68C118.267 240.034 118.438 240.517 118.438 241.129C118.438 241.728 118.26 242.208 117.906 242.57C117.552 242.932 117.081 243.113 116.492 243.113C115.818 243.113 115.302 242.855 114.945 242.34C114.589 241.822 114.41 241.072 114.41 240.09C114.41 239.168 114.629 238.434 115.066 237.887C115.504 237.337 116.091 237.063 116.828 237.063C117.026 237.063 117.225 237.082 117.426 237.121C117.629 237.16 117.84 237.219 118.059 237.297V237.297Z" fill="black"/>
<path d="M20.4453 282.168H21.1094L19.0781 288.742H18.4141L20.4453 282.168Z" fill="black"/>
<path d="M23.8516 282.945L22.7812 285.848H24.9258L23.8516 282.945ZM23.4062 282.168H24.3008L26.5234 288H25.7031L25.1719 286.504H22.543L22.0117 288H21.1797L23.4062 282.168Z" fill="black"/>
<path d="M65.4375 282.168H66.1016L64.0703 288.742H63.4062L65.4375 282.168Z" fill="black"/>
<path d="M67.6836 285.215V287.352H68.9492C69.3737 287.352 69.6875 287.264 69.8906 287.09C70.0964 286.913 70.1992 286.643 70.1992 286.281C70.1992 285.917 70.0964 285.648 69.8906 285.477C69.6875 285.302 69.3737 285.215 68.9492 285.215H67.6836ZM67.6836 282.816V284.574H68.8516C69.237 284.574 69.5234 284.503 69.7109 284.359C69.901 284.214 69.9961 283.992 69.9961 283.695C69.9961 283.401 69.901 283.181 69.7109 283.035C69.5234 282.889 69.237 282.816 68.8516 282.816H67.6836ZM66.8945 282.168H68.9102C69.5117 282.168 69.9753 282.293 70.3008 282.543C70.6263 282.793 70.7891 283.148 70.7891 283.609C70.7891 283.966 70.7057 284.25 70.5391 284.461C70.3724 284.672 70.1276 284.803 69.8047 284.855C70.1927 284.939 70.4935 285.113 70.707 285.379C70.9232 285.642 71.0312 285.971 71.0312 286.367C71.0312 286.888 70.8542 287.29 70.5 287.574C70.1458 287.858 69.6419 288 68.9883 288H66.8945V282.168Z" fill="black"/>
<path d="M110.383 282.168H111.047L109.016 288.742H108.352L110.383 282.168Z" fill="black"/>
<path d="M116.207 282.617V283.449C115.941 283.202 115.658 283.017 115.355 282.895C115.056 282.772 114.737 282.711 114.398 282.711C113.732 282.711 113.221 282.915 112.867 283.324C112.513 283.73 112.336 284.319 112.336 285.09C112.336 285.858 112.513 286.447 112.867 286.855C113.221 287.262 113.732 287.465 114.398 287.465C114.737 287.465 115.056 287.404 115.355 287.281C115.658 287.159 115.941 286.974 116.207 286.727V287.551C115.931 287.738 115.638 287.879 115.328 287.973C115.021 288.066 114.695 288.113 114.352 288.113C113.469 288.113 112.773 287.844 112.266 287.305C111.758 286.763 111.504 286.025 111.504 285.09C111.504 284.152 111.758 283.414 112.266 282.875C112.773 282.333 113.469 282.062 114.352 282.062C114.701 282.062 115.029 282.109 115.336 282.203C115.646 282.294 115.936 282.432 116.207 282.617V282.617Z" fill="black"/>
<path d="M20.1016 327.168H20.7656L18.7344 333.742H18.0703L20.1016 327.168Z" fill="black"/>
<path d="M22.3477 327.816V332.352H23.3008C24.1055 332.352 24.694 332.169 25.0664 331.805C25.4414 331.44 25.6289 330.865 25.6289 330.078C25.6289 329.297 25.4414 328.725 25.0664 328.363C24.694 327.999 24.1055 327.816 23.3008 327.816H22.3477ZM21.5586 327.168H23.1797C24.3099 327.168 25.1393 327.404 25.668 327.875C26.1966 328.344 26.4609 329.078 26.4609 330.078C26.4609 331.083 26.1953 331.822 25.6641 332.293C25.1328 332.764 24.3047 333 23.1797 333H21.5586V327.168Z" fill="black"/>
<path d="M65.6484 327.168H66.3125L64.2812 333.742H63.6172L65.6484 327.168Z" fill="black"/>
<path d="M67.1055 327.168H70.793V327.832H67.8945V329.559H70.6719V330.223H67.8945V332.336H70.8633V333H67.1055V327.168Z" fill="black"/>
<path d="M110.875 327.168H111.539L109.508 333.742H108.844L110.875 327.168Z" fill="black"/>
<path d="M112.332 327.168H115.684V327.832H113.121V329.551H115.434V330.215H113.121V333H112.332V327.168Z" fill="black"/>
<path d="M67.2385 373.536C67.1745 373.792 67.0358 373.984 66.8225 374.112C66.6091 374.261 66.3851 374.315 66.1505 374.272C65.8091 374.208 65.5851 373.995 65.4785 373.632L63.1745 372.48L63.2065 348.256L64.9025 346.816C64.8811 346.731 64.8811 346.645 64.9025 346.56C64.9451 346.304 65.0731 346.112 65.2865 345.984C65.4998 345.856 65.7345 345.813 65.9905 345.856C66.2251 345.899 66.4171 346.027 66.5665 346.24C66.7158 346.453 66.7691 346.688 66.7265 346.944C66.6625 347.2 66.5238 347.392 66.3105 347.52C66.0971 347.648 65.8731 347.691 65.6385 347.648H65.5745L64.1665 348.832V371.584L65.9905 372.512C66.2038 372.448 66.3851 372.427 66.5345 372.448C66.7691 372.491 66.9505 372.619 67.0785 372.832C67.2278 373.045 67.2812 373.28 67.2385 373.536V373.536ZM62.8865 344.672C62.8225 344.907 62.7051 345.088 62.5345 345.216L62.5025 369.024L60.4545 371.904H53.0945V355.712H57.7025C57.9158 355.371 58.2358 355.243 58.6625 355.328C58.8971 355.371 59.0891 355.499 59.2385 355.712C59.3878 355.925 59.4411 356.16 59.3985 356.416C59.3345 356.672 59.1958 356.864 58.9825 356.992C58.7691 357.12 58.5451 357.163 58.3105 357.12C58.0971 357.099 57.9371 357.013 57.8305 356.864H54.0865L54.0545 370.752L60.0385 370.72L61.3825 368.864L61.4465 345.216C61.1265 344.96 60.9985 344.651 61.0625 344.288C61.1265 344.032 61.2651 343.84 61.4785 343.712C61.6918 343.584 61.9265 343.541 62.1825 343.584C62.4171 343.627 62.5985 343.755 62.7265 343.968C62.8758 344.181 62.9291 344.416 62.8865 344.672V344.672ZM61.3185 347.04C61.2545 347.275 61.1265 347.467 60.9345 347.616V358.432L55.5905 358.368V368.96L58.4385 368.992C58.6305 368.693 58.9398 368.576 59.3665 368.64C59.6011 368.683 59.7825 368.811 59.9105 369.024C60.0598 369.237 60.1131 369.472 60.0705 369.728C60.0065 369.984 59.8678 370.176 59.6545 370.304C59.4411 370.432 59.2171 370.475 58.9825 370.432C58.7478 370.368 58.5665 370.24 58.4385 370.048L54.6305 370.08L54.6945 357.376L59.8465 357.312L59.7825 347.552C59.5265 347.317 59.4305 347.019 59.4945 346.656C59.5585 346.4 59.6865 346.208 59.8785 346.08C60.0918 345.952 60.3265 345.909 60.5825 345.952C60.8171 345.995 61.0091 346.123 61.1585 346.336C61.3078 346.549 61.3611 346.784 61.3185 347.04V347.04ZM66.1825 346.816C66.2252 346.56 66.1291 346.411 65.8945 346.368C65.6385 346.325 65.4892 346.421 65.4465 346.656C65.3398 346.955 65.4358 347.115 65.7345 347.136C65.9691 347.179 66.1185 347.072 66.1825 346.816V346.816ZM62.3745 344.576C62.4171 344.299 62.3105 344.139 62.0545 344.096C61.7771 344.053 61.6278 344.16 61.6065 344.416C61.5425 344.672 61.6385 344.821 61.8945 344.864C62.1078 344.907 62.2678 344.811 62.3745 344.576V344.576ZM60.7745 346.944C60.7958 346.667 60.6998 346.507 60.4865 346.464C60.2091 346.421 60.0598 346.528 60.0385 346.784C59.9745 347.04 60.0705 347.189 60.3265 347.232C60.5611 347.275 60.7105 347.179 60.7745 346.944V346.944ZM58.8865 356.32C58.9291 356.043 58.8225 355.883 58.5665 355.84C58.2891 355.797 58.1398 355.904 58.1185 356.16C58.0545 356.416 58.1505 356.565 58.4065 356.608C58.6198 356.651 58.7798 356.555 58.8865 356.32V356.32ZM66.7265 373.44C66.7691 373.184 66.6731 373.035 66.4385 372.992C66.1398 372.971 65.9798 373.067 65.9585 373.28C65.9158 373.387 65.9265 373.483 65.9905 373.568C66.0758 373.675 66.1718 373.739 66.2785 373.76C66.5132 373.803 66.6625 373.696 66.7265 373.44V373.44ZM59.5585 369.6C59.6011 369.344 59.5051 369.195 59.2705 369.152C58.9718 369.131 58.8118 369.227 58.7905 369.44C58.7478 369.547 58.7585 369.653 58.8225 369.76C58.9078 369.845 59.0038 369.899 59.1105 369.92C59.3451 369.963 59.4945 369.856 59.5585 369.6V369.6Z" fill="black"/>
<path d="M80.1359 360.512C80.1359 360.683 80.0719 360.843 79.9439 360.992C79.8373 361.12 79.6879 361.195 79.4959 361.216L77.6079 364.384H75.3679H74.0239L73.9919 353.12C73.8853 353.013 73.7999 352.875 73.7359 352.704C73.6933 352.512 73.7253 352.341 73.8319 352.192C73.9599 352.021 74.1199 351.915 74.3119 351.872C74.5253 351.829 74.7066 351.861 74.8559 351.968C75.0266 352.075 75.1333 352.224 75.1759 352.416C75.2399 352.736 75.1226 352.992 74.8239 353.184V363.584H75.8479H77.1919L78.7919 360.864C78.7706 360.821 78.7493 360.768 78.7279 360.704C78.7066 360.64 78.6959 360.576 78.6959 360.512C78.6959 360.32 78.7706 360.16 78.9199 360.032C79.0693 359.883 79.2399 359.808 79.4319 359.808C79.6453 359.808 79.8159 359.883 79.9439 360.032C80.0719 360.16 80.1359 360.32 80.1359 360.512V360.512ZM73.7999 351.264C73.7999 351.499 73.6933 351.691 73.4799 351.84V373.248C73.7146 373.419 73.7999 373.664 73.7359 373.984C73.6933 374.176 73.5973 374.325 73.4479 374.432C73.2986 374.539 73.1173 374.571 72.9039 374.528C72.7119 374.485 72.5519 374.379 72.4239 374.208C72.3173 374.059 72.2853 373.888 72.3279 373.696C72.4346 373.461 72.5413 373.301 72.6479 373.216L72.6799 351.84C72.4879 351.691 72.3919 351.499 72.3919 351.264C72.3919 351.072 72.4559 350.912 72.5839 350.784C72.7333 350.635 72.9039 350.56 73.0959 350.56C73.3093 350.56 73.4799 350.635 73.6079 350.784C73.7359 350.912 73.7999 351.072 73.7999 351.264V351.264ZM82.8879 371.456C82.8879 371.648 82.8239 371.819 82.6959 371.968C82.5679 372.096 82.3973 372.16 82.1839 372.16C81.9919 372.16 81.8213 372.096 81.6719 371.968C81.5439 371.819 81.4799 371.648 81.4799 371.456C81.4799 371.392 81.4906 371.328 81.5119 371.264C81.5333 371.2 81.5546 371.147 81.5759 371.104L77.1919 365.632H75.8479H74.8239V371.936C75.1226 372.128 75.2399 372.384 75.1759 372.704C75.1333 372.896 75.0266 373.045 74.8559 373.152C74.7066 373.259 74.5253 373.291 74.3119 373.248C74.1199 373.205 73.9599 373.099 73.8319 372.928C73.7253 372.779 73.6933 372.608 73.7359 372.416C73.7999 372.245 73.8853 372.107 73.9919 372L74.0239 364.832L75.3679 364.8H77.6079L82.2799 370.752C82.4719 370.773 82.6213 370.859 82.7279 371.008C82.8346 371.136 82.8879 371.285 82.8879 371.456V371.456ZM72.4559 372.64C72.4133 372.832 72.3066 372.981 72.1359 373.088C71.9866 373.195 71.8053 373.227 71.5919 373.184C71.3999 373.141 71.2506 373.035 71.1439 372.864C71.0373 372.693 71.0053 372.512 71.0479 372.32C71.1119 372.107 71.2186 371.957 71.3679 371.872L71.3999 354.336L69.8959 353.088C69.8533 353.088 69.7999 353.099 69.7359 353.12C69.6933 353.12 69.6506 353.109 69.6079 353.088C69.4159 353.045 69.2666 352.939 69.1599 352.768C69.0533 352.597 69.0213 352.416 69.0639 352.224C69.1066 352.032 69.2026 351.883 69.3519 351.776C69.5226 351.669 69.7039 351.637 69.8959 351.68C70.2799 351.787 70.4719 352.011 70.4719 352.352L72.1999 353.856L72.1679 371.904C72.4239 372.096 72.5199 372.341 72.4559 372.64V372.64ZM74.7599 352.512C74.7386 352.299 74.6213 352.213 74.4079 352.256C74.1946 352.277 74.1093 352.405 74.1519 352.64C74.2159 352.832 74.3439 352.907 74.5359 352.864C74.7919 352.821 74.8666 352.704 74.7599 352.512V352.512ZM73.4159 351.36C73.5226 351.168 73.4373 351.051 73.1599 351.008C72.9893 350.965 72.8719 351.04 72.8079 351.232C72.7653 351.445 72.8399 351.563 73.0319 351.584C73.2666 351.627 73.3946 351.552 73.4159 351.36ZM79.7199 360.448C79.6986 360.256 79.5813 360.181 79.3679 360.224C79.1546 360.245 79.0693 360.363 79.1119 360.576C79.1333 360.768 79.2613 360.843 79.4959 360.8C79.7519 360.757 79.8266 360.64 79.7199 360.448ZM70.0559 352.448C70.1413 352.235 70.0666 352.107 69.8319 352.064C69.6613 352.021 69.5333 352.107 69.4479 352.32C69.4053 352.533 69.4906 352.651 69.7039 352.672C69.9173 352.715 70.0346 352.64 70.0559 352.448V352.448ZM82.5039 371.52C82.5466 371.435 82.5359 371.36 82.4719 371.296C82.4293 371.211 82.3546 371.157 82.2479 371.136C82.0346 371.093 81.9173 371.179 81.8959 371.392C81.8533 371.605 81.9279 371.723 82.1199 371.744C82.3546 371.787 82.4826 371.712 82.5039 371.52V371.52ZM74.7599 372.608C74.8666 372.416 74.7919 372.299 74.5359 372.256C74.3439 372.213 74.2159 372.288 74.1519 372.48C74.1093 372.715 74.1946 372.843 74.4079 372.864C74.6213 372.907 74.7386 372.821 74.7599 372.608V372.608ZM72.0399 372.544C72.1466 372.352 72.0719 372.235 71.8159 372.192C71.6453 372.149 71.5279 372.224 71.4639 372.416C71.4213 372.629 71.4959 372.747 71.6879 372.768C71.9013 372.811 72.0186 372.736 72.0399 372.544ZM73.3199 373.92C73.3626 373.835 73.3519 373.749 73.2879 373.664C73.2453 373.6 73.1706 373.557 73.0639 373.536C72.9359 373.515 72.8186 373.6 72.7119 373.792C72.6693 374.005 72.7546 374.123 72.9679 374.144C73.1813 374.187 73.2986 374.112 73.3199 373.92Z" fill="black"/>
<path d="M41 85.5H57Z" fill="black"/>
<path d="M41 85.5H57" stroke="#111111" stroke-width="0.75"/>
<path d="M41 85.5L55.915 87.0944Z" fill="black"/>
<path d="M41 85.5L55.915 87.0944" stroke="#111111" stroke-width="0.75"/>
<path d="M41 85.5L55.6611 88.6707Z" fill="black"/>
<path d="M41 85.5L55.6611 88.6707" stroke="#111111" stroke-width="0.75"/>
<path d="M41 85.5L55.241 90.2112Z" fill="black"/>
<path d="M41 85.5L55.241 90.2112" stroke="#111111" stroke-width="0.75"/>
<path d="M41 85.5L54.6595 91.6982Z" fill="black"/>
<path d="M41 85.5L54.6595 91.6982" stroke="#111111" stroke-width="0.75"/>
<path d="M41 85.5L54.7849 93.6227Z" fill="black"/>
<path d="M41 85.5L54.7849 93.6227" stroke="#111111" stroke-width="0.75"/>
<path d="M41 85.5L53.0407 94.4455Z" fill="black"/>
<path d="M41 85.5L53.0407 94.4455" stroke="#111111" stroke-width="0.75"/>
<path d="M41 85.5L52.0216 95.6747Z" fill="black"/>
<path d="M41 85.5L52.0216 95.6747" stroke="#111111" stroke-width="0.75"/>
<path d="M41 85.5L50.8777 96.7886Z" fill="black"/>
<path d="M41 85.5L50.8777 96.7886" stroke="#111111" stroke-width="0.75"/>
<path d="M41 85.5L49.6218 97.7745Z" fill="black"/>
<path d="M41 85.5L49.6218 97.7745" stroke="#111111" stroke-width="0.75"/>
<path d="M41 85.5L48.7528 99.4962Z" fill="black"/>
<path d="M41 85.5L48.7528 99.4962" stroke="#111111" stroke-width="0.75"/>
<path d="M41 85.5L32.5133 99.0638Z" fill="black"/>
<path d="M41 85.5L32.5133 99.0638" stroke="#111111" stroke-width="0.75"/>
<path d="M41.0001 85.5L31.7372 97.2983Z" fill="black"/>
<path d="M41.0001 85.5L31.7372 97.2983" stroke="#111111" stroke-width="0.75"/>
<path d="M41 85.5L30.5355 96.2468Z" fill="black"/>
<path d="M41 85.5L30.5355 96.2468" stroke="#111111" stroke-width="0.75"/>
<path d="M41 85.5L29.4525 95.0737Z" fill="black"/>
<path d="M41 85.5L29.4525 95.0737" stroke="#111111" stroke-width="0.75"/>
<path d="M41 85.5L28.5002 93.792Z" fill="black"/>
<path d="M41 85.5L28.5002 93.792" stroke="#111111" stroke-width="0.75"/>
<path d="M41 85.5L26.8024 92.8775Z" fill="black"/>
<path d="M41 85.5L26.8024 92.8775" stroke="#111111" stroke-width="0.75"/>
<path d="M41 85.5L27.0299 90.9624Z" fill="black"/>
<path d="M41 85.5L27.0299 90.9624" stroke="#111111" stroke-width="0.75"/>
<path d="M41 85.5L26.5284 89.4465Z" fill="black"/>
<path d="M41 85.5L26.5284 89.4465" stroke="#111111" stroke-width="0.75"/>
<path d="M40.9999 85.5L26.1909 87.886Z" fill="black"/>
<path d="M40.9999 85.5L26.1909 87.886" stroke="#111111" stroke-width="0.75"/>
<path d="M41 85.5L26.0212 86.2983Z" fill="black"/>
<path d="M41 85.5L26.0212 86.2983" stroke="#111111" stroke-width="0.75"/>
<path d="M41 85.5L25.0227 84.6484Z" fill="black"/>
<path d="M41 85.5L25.0227 84.6484" stroke="#111111" stroke-width="0.75"/>
<path d="M40.9999 85.5L26.1909 83.114Z" fill="black"/>
<path d="M40.9999 85.5L26.1909 83.114" stroke="#111111" stroke-width="0.75"/>
<path d="M41 85.5L26.5284 81.5535Z" fill="black"/>
<path d="M41 85.5L26.5284 81.5535" stroke="#111111" stroke-width="0.75"/>
<path d="M41 85.5L27.0299 80.0376Z" fill="black"/>
<path d="M41 85.5L27.0299 80.0376" stroke="#111111" stroke-width="0.75"/>
<path d="M41 85.5L27.6897 78.5836Z" fill="black"/>
<path d="M41 85.5L27.6897 78.5836" stroke="#111111" stroke-width="0.75"/>
<path d="M41 85.5L27.667 76.6552Z" fill="black"/>
<path d="M41 85.5L27.667 76.6552" stroke="#111111" stroke-width="0.75"/>
<path d="M41 85.5L29.4525 75.9263Z" fill="black"/>
<path d="M41 85.5L29.4525 75.9263" stroke="#111111" stroke-width="0.75"/>
<path d="M41 85.5L30.5355 74.7531Z" fill="black"/>
<path d="M41 85.5L30.5355 74.7531" stroke="#111111" stroke-width="0.75"/>
<path d="M41.0001 85.5L31.7372 73.7017Z" fill="black"/>
<path d="M41.0001 85.5L31.7372 73.7017" stroke="#111111" stroke-width="0.75"/>
<path d="M41 85.5L33.0437 72.784Z" fill="black"/>
<path d="M41 85.5L33.0437 72.784" stroke="#111111" stroke-width="0.75"/>
<path d="M41 85.5L34.0031 71.111Z" fill="black"/>
<path d="M41 85.5L34.0031 71.111" stroke="#111111" stroke-width="0.75"/>
<path d="M41 85.5L35.9114 71.3895Z" fill="black"/>
<path d="M41 85.5L35.9114 71.3895" stroke="#111111" stroke-width="0.75"/>
<path d="M41 85.5L37.4401 70.9286Z" fill="black"/>
<path d="M41 85.5L37.4401 70.9286" stroke="#111111" stroke-width="0.75"/>
<path d="M41 85.5L39.0092 70.6327Z" fill="black"/>
<path d="M41 85.5L39.0092 70.6327" stroke="#111111" stroke-width="0.75"/>
<path d="M41 85.5L40.6007 70.5053Z" fill="black"/>
<path d="M41 85.5L40.6007 70.5053" stroke="#111111" stroke-width="0.75"/>
<path d="M41 85.5L42.2766 69.551Z" fill="black"/>
<path d="M41 85.5L42.2766 69.551" stroke="#111111" stroke-width="0.75"/>
<path d="M41 85.5L43.7793 70.7597Z" fill="black"/>
<path d="M41 85.5L43.7793 70.7597" stroke="#111111" stroke-width="0.75"/>
<path d="M41 85.5L45.3304 71.1387Z" fill="black"/>
<path d="M41 85.5L45.3304 71.1387" stroke="#111111" stroke-width="0.75"/>
<path d="M41 85.5L46.8324 71.6803Z" fill="black"/>
<path d="M41 85.5L46.8324 71.6803" stroke="#111111" stroke-width="0.75"/>
<path d="M41 85.5L48.2683 72.3785Z" fill="black"/>
<path d="M41 85.5L48.2683 72.3785" stroke="#111111" stroke-width="0.75"/>
<path d="M41 85.5L50.1966 72.4072Z" fill="black"/>
<path d="M41 85.5L50.1966 72.4072" stroke="#111111" stroke-width="0.75"/>
<path d="M41 85.5L50.8777 74.2114Z" fill="black"/>
<path d="M41 85.5L50.8777 74.2114" stroke="#111111" stroke-width="0.75"/>
<path d="M41 85.5L52.0216 75.3253Z" fill="black"/>
<path d="M41 85.5L52.0216 75.3253" stroke="#111111" stroke-width="0.75"/>
<path d="M41 85.5L53.0407 76.5545Z" fill="black"/>
<path d="M41 85.5L53.0407 76.5545" stroke="#111111" stroke-width="0.75"/>
<path d="M41 85.5L53.9233 77.885Z" fill="black"/>
<path d="M41 85.5L53.9233 77.885" stroke="#111111" stroke-width="0.75"/>
<path d="M41 85.5L55.5702 78.8886Z" fill="black"/>
<path d="M41 85.5L55.5702 78.8886" stroke="#111111" stroke-width="0.75"/>
<path d="M41 85.5L55.241 80.7888Z" fill="black"/>
<path d="M41 85.5L55.241 80.7888" stroke="#111111" stroke-width="0.75"/>
<path d="M41 85.5L55.6611 82.3293Z" fill="black"/>
<path d="M41 85.5L55.6611 82.3293" stroke="#111111" stroke-width="0.75"/>
<path d="M41 85.5L55.915 83.9056Z" fill="black"/>
<path d="M41 85.5L55.915 83.9056" stroke="#111111" stroke-width="0.75"/>
<path d="M41 85.5H56Z" fill="black"/>
<path d="M41 85.5H56" stroke="#111111" stroke-width="0.75"/>
<path d="M54 85.5C54 88.9478 52.6304 92.2544 50.1924 94.6924C47.7544 97.1304 44.4478 98.5 41 98.5C37.5522 98.5 34.2456 97.1304 31.8076 94.6924C29.3696 92.2544 28 88.9478 28 85.5C28 82.0522 29.3696 78.7456 31.8076 76.3076C34.2456 73.8696 37.5522 72.5 41 72.5C44.4478 72.5 47.7544 73.8696 50.1924 76.3076C52.6304 78.7456 54 82.0522 54 85.5V85.5Z" fill="#888888" stroke="#111111" stroke-width="0.75"/>
<path d="M41 130.5H57Z" fill="black"/>
<path d="M41 130.5H57" stroke="#111111" stroke-width="0.75"/>
<path d="M41 130.5L55.915 132.094Z" fill="black"/>
<path d="M41 130.5L55.915 132.094" stroke="#111111" stroke-width="0.75"/>
<path d="M41 130.5L55.6611 133.671Z" fill="black"/>
<path d="M41 130.5L55.6611 133.671" stroke="#111111" stroke-width="0.75"/>
<path d="M41 130.5L55.241 135.211Z" fill="black"/>
<path d="M41 130.5L55.241 135.211" stroke="#111111" stroke-width="0.75"/>
<path d="M41 130.5L54.6595 136.698Z" fill="black"/>
<path d="M41 130.5L54.6595 136.698" stroke="#111111" stroke-width="0.75"/>
<path d="M41 130.5L54.7849 138.623Z" fill="black"/>
<path d="M41 130.5L54.7849 138.623" stroke="#111111" stroke-width="0.75"/>
<path d="M41 130.5L53.0407 139.446Z" fill="black"/>
<path d="M41 130.5L53.0407 139.446" stroke="#111111" stroke-width="0.75"/>
<path d="M41 130.5L52.0216 140.675Z" fill="black"/>
<path d="M41 130.5L52.0216 140.675" stroke="#111111" stroke-width="0.75"/>
<path d="M41 130.5L50.8777 141.789Z" fill="black"/>
<path d="M41 130.5L50.8777 141.789" stroke="#111111" stroke-width="0.75"/>
<path d="M41 130.5L49.6218 142.775Z" fill="black"/>
<path d="M41 130.5L49.6218 142.775" stroke="#111111" stroke-width="0.75"/>
<path d="M41 130.5L48.7528 144.496Z" fill="black"/>
<path d="M41 130.5L48.7528 144.496" stroke="#111111" stroke-width="0.75"/>
<path d="M41 130.5L32.5133 144.064Z" fill="black"/>
<path d="M41 130.5L32.5133 144.064" stroke="#111111" stroke-width="0.75"/>
<path d="M41.0001 130.5L31.7372 142.298Z" fill="black"/>
<path d="M41.0001 130.5L31.7372 142.298" stroke="#111111" stroke-width="0.75"/>
<path d="M41 130.5L30.5355 141.247Z" fill="black"/>
<path d="M41 130.5L30.5355 141.247" stroke="#111111" stroke-width="0.75"/>
<path d="M41 130.5L29.4525 140.074Z" fill="black"/>
<path d="M41 130.5L29.4525 140.074" stroke="#111111" stroke-width="0.75"/>
<path d="M41 130.5L28.5002 138.792Z" fill="black"/>
<path d="M41 130.5L28.5002 138.792" stroke="#111111" stroke-width="0.75"/>
<path d="M41 130.5L26.8024 137.877Z" fill="black"/>
<path d="M41 130.5L26.8024 137.877" stroke="#111111" stroke-width="0.75"/>
<path d="M41 130.5L27.0299 135.962Z" fill="black"/>
<path d="M41 130.5L27.0299 135.962" stroke="#111111" stroke-width="0.75"/>
<path d="M41 130.5L26.5284 134.447Z" fill="black"/>
<path d="M41 130.5L26.5284 134.447" stroke="#111111" stroke-width="0.75"/>
<path d="M40.9999 130.5L26.1909 132.886Z" fill="black"/>
<path d="M40.9999 130.5L26.1909 132.886" stroke="#111111" stroke-width="0.75"/>
<path d="M41 130.5L26.0212 131.298Z" fill="black"/>
<path d="M41 130.5L26.0212 131.298" stroke="#111111" stroke-width="0.75"/>
<path d="M41 130.5L25.0227 129.648Z" fill="black"/>
<path d="M41 130.5L25.0227 129.648" stroke="#111111" stroke-width="0.75"/>
<path d="M40.9999 130.5L26.1909 128.114Z" fill="black"/>
<path d="M40.9999 130.5L26.1909 128.114" stroke="#111111" stroke-width="0.75"/>
<path d="M41 130.5L26.5284 126.553Z" fill="black"/>
<path d="M41 130.5L26.5284 126.553" stroke="#111111" stroke-width="0.75"/>
<path d="M41 130.5L27.0299 125.038Z" fill="black"/>
<path d="M41 130.5L27.0299 125.038" stroke="#111111" stroke-width="0.75"/>
<path d="M41 130.5L27.6897 123.584Z" fill="black"/>
<path d="M41 130.5L27.6897 123.584" stroke="#111111" stroke-width="0.75"/>
<path d="M41 130.5L27.667 121.655Z" fill="black"/>
<path d="M41 130.5L27.667 121.655" stroke="#111111" stroke-width="0.75"/>
<path d="M41 130.5L29.4525 120.926Z" fill="black"/>
<path d="M41 130.5L29.4525 120.926" stroke="#111111" stroke-width="0.75"/>
<path d="M41 130.5L30.5355 119.753Z" fill="black"/>
<path d="M41 130.5L30.5355 119.753" stroke="#111111" stroke-width="0.75"/>
<path d="M41.0001 130.5L31.7372 118.702Z" fill="black"/>
<path d="M41.0001 130.5L31.7372 118.702" stroke="#111111" stroke-width="0.75"/>
<path d="M41 130.5L33.0437 117.784Z" fill="black"/>
<path d="M41 130.5L33.0437 117.784" stroke="#111111" stroke-width="0.75"/>
<path d="M41 130.5L34.0031 116.111Z" fill="black"/>
<path d="M41 130.5L34.0031 116.111" stroke="#111111" stroke-width="0.75"/>
<path d="M41 130.5L35.9114 116.389Z" fill="black"/>
<path d="M41 130.5L35.9114 116.389" stroke="#111111" stroke-width="0.75"/>
<path d="M41 130.5L37.4401 115.929Z" fill="black"/>
<path d="M41 130.5L37.4401 115.929" stroke="#111111" stroke-width="0.75"/>
<path d="M41 130.5L39.0092 115.633Z" fill="black"/>
<path d="M41 130.5L39.0092 115.633" stroke="#111111" stroke-width="0.75"/>
<path d="M41 130.5L40.6007 115.505Z" fill="black"/>
<path d="M41 130.5L40.6007 115.505" stroke="#111111" stroke-width="0.75"/>
<path d="M41 130.5L42.2766 114.551Z" fill="black"/>
<path d="M41 130.5L42.2766 114.551" stroke="#111111" stroke-width="0.75"/>
<path d="M41 130.5L43.7793 115.76Z" fill="black"/>
<path d="M41 130.5L43.7793 115.76" stroke="#111111" stroke-width="0.75"/>
<path d="M41 130.5L45.3304 116.139Z" fill="black"/>
<path d="M41 130.5L45.3304 116.139" stroke="#111111" stroke-width="0.75"/>
<path d="M41 130.5L46.8324 116.68Z" fill="black"/>
<path d="M41 130.5L46.8324 116.68" stroke="#111111" stroke-width="0.75"/>
<path d="M41 130.5L48.2683 117.379Z" fill="black"/>
<path d="M41 130.5L48.2683 117.379" stroke="#111111" stroke-width="0.75"/>
<path d="M41 130.5L50.1966 117.407Z" fill="black"/>
<path d="M41 130.5L50.1966 117.407" stroke="#111111" stroke-width="0.75"/>
<path d="M41 130.5L50.8777 119.211Z" fill="black"/>
<path d="M41 130.5L50.8777 119.211" stroke="#111111" stroke-width="0.75"/>
<path d="M41 130.5L52.0216 120.325Z" fill="black"/>
<path d="M41 130.5L52.0216 120.325" stroke="#111111" stroke-width="0.75"/>
<path d="M41 130.5L53.0407 121.554Z" fill="black"/>
<path d="M41 130.5L53.0407 121.554" stroke="#111111" stroke-width="0.75"/>
<path d="M41 130.5L53.9233 122.885Z" fill="black"/>
<path d="M41 130.5L53.9233 122.885" stroke="#111111" stroke-width="0.75"/>
<path d="M41 130.5L55.5702 123.889Z" fill="black"/>
<path d="M41 130.5L55.5702 123.889" stroke="#111111" stroke-width="0.75"/>
<path d="M41 130.5L55.241 125.789Z" fill="black"/>
<path d="M41 130.5L55.241 125.789" stroke="#111111" stroke-width="0.75"/>
<path d="M41 130.5L55.6611 127.329Z" fill="black"/>
<path d="M41 130.5L55.6611 127.329" stroke="#111111" stroke-width="0.75"/>
<path d="M41 130.5L55.915 128.906Z" fill="black"/>
<path d="M41 130.5L55.915 128.906" stroke="#111111" stroke-width="0.75"/>
<path d="M41 130.5H56Z" fill="black"/>
<path d="M41 130.5H56" stroke="#111111" stroke-width="0.75"/>
<path d="M54 130.5C54 133.948 52.6304 137.254 50.1924 139.692C47.7544 142.13 44.4478 143.5 41 143.5C37.5522 143.5 34.2456 142.13 31.8076 139.692C29.3696 137.254 28 133.948 28 130.5C28 127.052 29.3696 123.746 31.8076 121.308C34.2456 118.87 37.5522 117.5 41 117.5C44.4478 117.5 47.7544 118.87 50.1924 121.308C52.6304 123.746 54 127.052 54 130.5V130.5Z" fill="#888888" stroke="#111111" stroke-width="0.75"/>
</svg>
